<svg id="Capa_1" enable-background="new 0 0 512 512" height="512" viewBox="0 0 512 512" width="512" xmlns="http://www.w3.org/2000/svg"><g><path d="m116.739 138.734h195.166v30h-195.166z"/><path d="m385.072 340.006v-340.006h-272.713l-68.787 68.787v372.417h134.69l-27.005 48.498 13.105 22.298h290.96l13.105-22.298zm-262.765-307.527v46.256h-46.256zm-48.735 378.725v-302.47h78.734v-78.734h202.766v256.129l-32.125-57.693h-11.042v-29.703h-195.166v30h179.832l-16.705 30h-163.127v30h146.422l-68.195 122.47h-121.394zm116.312 70.796 119.958-215.433 119.959 215.433z"/><path d="m294.842 422h30v30h-30z"/><path d="m294.842 333.977h30v58.023h-30z"/></g></svg>